<svg xmlns="http://www.w3.org/2000/svg" width="30" height="30" viewBox="0 0 30 30">
  <g id="SNS_kakaostory" transform="translate(-141 -9285.002)">
    <rect id="사각형_1032" data-name="사각형 1032" width="30" height="30" rx="5" transform="translate(141 9285.001)" fill="#d3dbd9"/>
    <path id="패스_9970" data-name="패스 9970" d="M-1524.741,389h-7.591a.923.923,0,0,0-.923.923V397.5a.923.923,0,0,0,.923.923h3.5a5.723,5.723,0,0,1-.94,2.75,11.044,11.044,0,0,1-1.92,2.071.507.507,0,0,0-.179.371.531.531,0,0,0,.13.312l2.441,2.752a.6.6,0,0,0,.216.149.386.386,0,0,0,.323-.037,12.363,12.363,0,0,0,4.943-9.585c0-.013,0-7.277,0-7.277a.923.923,0,0,0-.924-.923" transform="translate(1684.537 8902.079)" fill="#fff"/>
  </g>
</svg>
